# File created by Blade
# Date/Time:  Thu Jan 22 16:04:59 2015
# Frame Rate: 120.000 fps
#------------------------------------------------------
:FULLY-SPECIFIED
:DEGREES
1432
root 3.360122 37.091814 5.622922 0.120525 -6.737044 1.494201
RightUpLeg 7.518097 -2.321916 -8.544179
RightLeg -5.876086 -0.000000 0.000000
RightFoot -7.752650 -11.766307 20.524840
RightToeBase 10.887432 -0.000000 -0.000000
LeftUpLeg 7.364273 1.283155 7.428085
LeftLeg -3.489339 -0.000000 0.000000
LeftFoot -4.558501 6.882894 -23.133615
LeftToeBase 7.101632 -0.000000 -0.000000
Spine 0.491749 -6.096281 -2.802464
RightShoulder -8.627282 -15.243365 -34.694110
RightArm 6.314737 23.044633 27.752818
RightForeArm 13.828783 -0.000000 22.215958
RightHand 9.028536 -0.000000 -10.882164
RightHandThumb1 -24.326973 -0.000000 -32.862282
LeftShoulder -27.840585 33.323275 23.542203
LeftArm 29.547047 -39.664964 -33.030329
LeftForeArm 50.064744 -0.000000 6.161868
LeftHand -14.909384 -0.000000 7.196487
LeftHandThumb1 -26.253704 0.000000 33.147579
Head 25.483722 18.823892 4.630243
1433
root 3.367031 37.089839 5.605986 0.147081 -6.704531 1.519468
RightUpLeg 7.472621 -2.335514 -8.573313
RightLeg -5.881634 -0.000000 0.000000
RightFoot -7.759609 -11.788378 20.512003
RightToeBase 10.828552 -0.000000 -0.000000
LeftUpLeg 7.293088 1.294426 7.400411
LeftLeg -3.477679 -0.000000 0.000000
LeftFoot -4.568998 6.847116 -23.186688
LeftToeBase 7.213227 -0.000000 -0.000000
Spine 0.634344 -6.152017 -2.829927
RightShoulder -8.857810 -16.405893 -33.735328
RightArm 7.039788 21.638680 28.497775
RightForeArm 12.953923 -0.000000 22.180434
RightHand 8.861708 -0.000000 -10.523569
RightHandThumb1 -24.326973 -0.000000 -32.862282
LeftShoulder -28.331472 34.189445 22.304916
LeftArm 29.842980 -38.335267 -33.743446
LeftForeArm 50.019681 -0.000000 6.034920
LeftHand -13.957030 -0.000000 5.900520
LeftHandThumb1 -26.253704 0.000000 33.147579
Head 25.418736 18.828402 4.656135
1434
root 3.371924 37.088007 5.589960 0.184191 -6.657587 1.539651
RightUpLeg 7.429656 -2.369005 -8.594545
RightLeg -5.901012 -0.000000 0.000000
RightFoot -7.761018 -11.810897 20.492028
RightToeBase 10.839869 -0.000000 -0.000000
LeftUpLeg 7.213468 1.309635 7.381127
LeftLeg -3.469844 -0.000000 0.000000
LeftFoot -4.540274 6.801283 -23.169480
LeftToeBase 7.174364 -0.000000 -0.000000
Spine 0.761312 -6.195757 -2.845318
RightShoulder -9.024299 -17.288060 -32.933757
RightArm 7.604287 19.922143 29.300355
RightForeArm 12.294371 -0.000000 22.039956
RightHand 8.930208 -0.000000 -9.859676
RightHandThumb1 -24.326973 -0.000000 -32.862282
LeftShoulder -28.708329 34.789884 21.231403
LeftArm 29.902294 -36.708695 -34.286760
LeftForeArm 49.972562 0.000000 5.951500
LeftHand -13.733590 -0.000000 5.234179
LeftHandThumb1 -26.253704 0.000000 33.147579
Head 25.361065 18.792264 4.652198
1435
root 3.374473 37.086725 5.575031 0.214451 -6.602806 1.551943
RightUpLeg 7.395900 -2.410007 -8.607972
RightLeg -5.914747 -0.000000 0.000000
RightFoot -7.753007 -11.822937 20.486766
RightToeBase 10.833958 -0.000000 -0.000000
LeftUpLeg 7.144128 1.311485 7.374149
LeftLeg -3.466654 -0.000000 0.000000
LeftFoot -4.503249 6.747880 -23.152871
LeftToeBase 7.171600 -0.000000 -0.000000
Spine 0.878291 -6.258233 -2.851744
RightShoulder -9.092519 -18.013119 -32.203642
RightArm 7.931529 18.061932 30.058654
RightForeArm 11.712354 0.000000 22.024983
RightHand 9.269649 -0.000000 -9.653168
RightHandThumb1 -24.326973 -0.000000 -32.862282
LeftShoulder -28.911178 35.146062 20.326722
LeftArm 29.742689 -35.058393 -34.835528
LeftForeArm 50.292590 -0.000000 6.004345
LeftHand -13.404700 -0.000000 4.612793
LeftHandThumb1 -26.253704 0.000000 33.147579
Head 25.334706 18.747398 4.605261
